<svg width="375" height="25" viewBox="0 0 375 25" fill="none" xmlns="http://www.w3.org/2000/svg">
<path d="M0 25L8.95833 22.5C17.9167 19.9658 35.8333 14.9658 53.6667 12.7397C71.5417 10.5137 89.2917 11.0616 107.167 13.0822C125 15.0685 142.917 18.4932 160.75 19.6918C178.625 20.8904 196.375 19.863 214.25 20.9589C232.083 22.0205 250 25.2397 267.833 24.8973C285.708 24.5548 303.458 20.6507 321.333 18.1507C339.167 15.6507 357.083 14.4863 366.042 13.9384L375 13.3562V0H366.042C357.083 0 339.167 0 321.333 0C303.458 0 285.708 0 267.833 0C250 0 232.083 0 214.25 0C196.375 0 178.625 0 160.75 0C142.917 0 125 0 107.167 0C89.2917 0 71.5417 0 53.6667 0C35.8333 0 17.9167 0 8.95833 0H0V25Z" fill="#FBF9FF"/>
</svg>
